# xmcd CD database file
#
# Track frame offsets:
#	150
#	23025
#	41175
#	60900
#	81450
#	101325
#	121875
#	137250
#	163500
#	180825
#	199050
#	219825
#	241800
#	266325
#
# Disc length: 4135 seconds
#
# Revision: 0
# Processed by: cddbd v1.5.1PL2 Copyright (c) Steve Scherf et al.
# Submitted via: CDex 1.51
#
DISCID=a810250e
DTITLE=小椋　佳 - 夢のつづき
DYEAR=1997
DGENRE=JPop
TTITLE0=藍色の時
TTITLE1=あなたのような人がいるから
TTITLE2=夢積み上げて
TTITLE3=夢は死なない
TTITLE4=仮眠（まどろみ）
TTITLE5=君が僕を優しくする
TTITLE6=さらば青春
TTITLE7=心の酒
TTITLE8=優しさばかり
TTITLE9=遠景
TTITLE10=旅のふた影
TTITLE11=歓送の歌
TTITLE12=山に抱かれて
TTITLE13=夢のつづき（メドレー）
EXTD=YEAR: 1997
EXTT0=
EXTT1=
EXTT2=
EXTT3=
EXTT4=
EXTT5=
EXTT6=
EXTT7=
EXTT8=
EXTT9=
EXTT10=
EXTT11=
EXTT12=
EXTT13=
PLAYORDER=
